<svg id="svg" version="1.1" xmlns="http://www.w3.org/2000/svg" xmlns:xlink="http://www.w3.org/1999/xlink" width="400" height="171.68831168831167" viewBox="0, 0, 400,171.68831168831167"><g id="svgg"><path id="path0" d="M270.768 14.097 C 270.634 14.447,270.640 20.632,270.777 23.640 L 270.887 26.031 271.485 26.415 C 271.814 26.626,273.546 27.716,275.333 28.836 C 277.121 29.956,279.446 31.417,280.500 32.084 C 285.412 35.188,290.842 38.612,293.500 40.281 C 295.104 41.287,298.479 43.411,301.000 45.000 C 303.521 46.589,306.558 48.502,307.750 49.252 C 308.942 50.002,314.417 53.452,319.917 56.918 C 325.417 60.384,331.492 64.210,333.417 65.420 C 335.342 66.629,338.342 68.518,340.083 69.616 C 341.825 70.714,346.325 73.550,350.083 75.917 C 353.842 78.284,358.042 80.932,359.417 81.800 C 360.792 82.668,362.573 83.789,363.376 84.290 C 364.178 84.791,364.865 85.250,364.902 85.309 C 364.955 85.396,357.347 90.377,344.753 98.500 C 343.972 99.004,341.926 100.327,340.208 101.440 C 332.973 106.126,323.023 112.573,322.250 113.076 C 320.383 114.290,316.084 117.075,294.458 131.081 L 271.833 145.733 271.833 151.881 C 271.833 155.451,271.896 158.004,271.983 157.972 C 272.066 157.942,276.939 154.804,282.812 151.000 C 288.686 147.196,294.131 143.671,294.912 143.167 C 295.693 142.662,300.381 139.625,305.330 136.417 C 310.278 133.208,316.334 129.286,318.788 127.701 C 321.242 126.115,324.037 124.305,325.000 123.678 C 325.962 123.051,328.887 121.155,331.500 119.464 C 336.833 116.012,339.357 114.376,340.583 113.577 C 345.036 110.674,379.262 88.508,381.460 87.104 C 383.683 85.683,384.289 85.222,384.127 85.076 C 384.011 84.972,382.754 84.184,381.333 83.326 C 379.912 82.467,378.675 81.700,378.583 81.621 C 378.492 81.542,375.904 79.897,372.833 77.966 C 361.255 70.687,355.064 66.787,354.500 66.416 C 354.179 66.205,352.304 65.022,350.333 63.788 C 348.363 62.553,345.587 60.809,344.167 59.913 C 342.746 59.016,340.608 57.669,339.417 56.919 C 338.225 56.169,335.188 54.255,332.667 52.667 C 330.146 51.078,327.108 49.165,325.917 48.416 C 324.725 47.666,319.250 44.217,313.750 40.749 C 308.250 37.282,301.762 33.196,299.333 31.669 C 296.904 30.142,293.904 28.254,292.667 27.473 C 286.777 23.760,276.517 17.298,274.500 16.032 C 273.262 15.255,271.989 14.442,271.670 14.226 C 270.984 13.762,270.901 13.750,270.768 14.097 M177.255 63.842 C 170.947 64.828,168.753 69.109,168.761 80.417 C 168.770 92.892,171.021 96.369,179.250 96.621 C 187.307 96.868,190.663 93.586,190.666 85.458 L 190.667 83.500 186.667 83.500 L 182.667 83.500 182.662 84.625 C 182.641 89.998,181.437 92.189,179.114 91.087 C 177.612 90.374,177.417 89.128,177.417 80.250 C 177.417 71.372,177.612 70.126,179.114 69.413 C 181.297 68.377,182.492 70.247,182.499 74.708 L 182.500 75.667 186.526 75.667 L 190.551 75.667 190.442 73.373 C 190.187 68.040,188.389 65.391,184.168 64.129 C 182.907 63.752,178.893 63.585,177.255 63.842 M15.500 64.423 C 15.500 64.472,15.684 65.578,15.908 66.881 C 16.735 71.686,17.334 75.182,18.000 79.083 C 19.219 86.227,19.643 88.699,20.176 91.750 C 20.465 93.400,20.740 95.070,20.789 95.461 L 20.877 96.172 25.480 96.128 L 30.083 96.083 30.281 94.500 C 30.390 93.629,30.670 91.454,30.902 89.667 C 31.135 87.879,31.475 85.254,31.658 83.833 C 31.840 82.412,32.108 80.350,32.254 79.250 C 32.399 78.150,32.582 76.737,32.662 76.111 C 32.840 74.701,32.937 74.582,33.067 75.614 C 33.834 81.717,34.405 86.183,34.661 88.083 C 34.835 89.367,35.143 91.710,35.347 93.292 L 35.719 96.167 40.273 96.167 L 44.827 96.167 44.911 95.792 C 44.958 95.585,45.300 93.617,45.672 91.417 C 46.044 89.217,46.567 86.142,46.835 84.583 C 47.685 79.633,48.297 76.043,49.080 71.417 C 49.818 67.055,50.093 65.490,50.260 64.708 L 50.340 64.333 46.282 64.333 L 42.224 64.333 42.030 66.458 C 41.923 67.627,41.536 71.508,41.169 75.083 C 40.802 78.658,40.420 82.483,40.320 83.583 C 40.039 86.696,39.948 86.712,39.522 83.732 C 39.313 82.275,39.037 80.408,38.908 79.583 C 38.623 77.763,36.667 64.519,36.667 64.411 C 36.667 64.368,34.981 64.333,32.920 64.333 L 29.173 64.333 29.095 64.708 C 29.052 64.915,28.900 65.946,28.756 67.000 C 28.445 69.282,27.461 76.575,26.990 80.083 C 26.040 87.171,26.052 87.139,25.684 83.500 C 25.587 82.537,25.322 80.137,25.095 78.167 C 24.868 76.196,24.454 72.521,24.174 70.000 C 23.894 67.479,23.625 65.173,23.575 64.875 L 23.485 64.333 19.492 64.333 C 17.297 64.333,15.500 64.374,15.500 64.423 M93.335 65.873 C 93.137 66.722,92.720 68.467,92.409 69.750 C 91.881 71.926,90.363 78.260,88.834 84.667 C 88.473 86.179,87.758 89.142,87.246 91.250 C 86.733 93.358,86.271 95.327,86.218 95.625 L 86.123 96.167 90.478 96.167 C 93.478 96.167,94.833 96.111,94.833 95.987 C 94.833 95.693,95.510 91.274,95.603 90.958 C 95.681 90.693,95.990 90.667,98.994 90.667 L 102.299 90.667 102.502 92.125 C 102.796 94.229,103.107 95.996,103.202 96.091 C 103.247 96.136,105.231 96.152,107.611 96.128 L 111.938 96.083 111.474 94.167 C 110.161 88.746,109.515 86.094,108.249 80.917 C 106.936 75.550,105.392 69.227,104.586 65.917 L 104.221 64.417 98.958 64.373 L 93.696 64.329 93.335 65.873 M100.151 77.649 L 101.283 84.333 98.960 84.333 L 96.637 84.333 96.752 83.625 C 96.815 83.235,97.227 80.779,97.668 78.167 C 98.109 75.554,98.562 72.834,98.675 72.121 C 98.788 71.408,98.912 70.856,98.950 70.895 C 98.988 70.933,99.529 73.972,100.151 77.649 M59.083 71.818 C 54.352 73.008,52.333 76.726,52.333 84.250 C 52.333 93.500,54.960 96.667,62.633 96.667 C 68.732 96.667,71.431 94.419,72.092 88.792 L 72.205 87.833 68.519 87.833 L 64.833 87.833 64.833 88.636 C 64.833 91.143,63.379 92.575,61.711 91.710 C 60.624 91.146,60.429 90.593,60.358 87.875 L 60.296 85.500 66.315 85.500 L 72.333 85.500 72.332 83.458 C 72.327 76.220,70.432 72.785,65.884 71.768 C 64.228 71.398,60.649 71.424,59.083 71.818 M125.893 71.902 C 124.399 72.598,123.391 73.715,122.722 75.417 C 122.553 75.847,122.524 75.642,122.513 73.958 L 122.500 72.000 118.583 72.000 L 114.667 72.000 114.667 84.083 L 114.667 96.167 118.667 96.167 L 122.667 96.167 122.667 89.342 C 122.667 79.408,122.884 78.917,127.287 78.917 L 129.166 78.917 129.166 75.208 L 129.167 71.500 127.958 71.502 C 127.036 71.503,126.547 71.598,125.893 71.902 M138.583 71.818 C 133.788 73.024,131.839 76.616,131.839 84.250 C 131.839 93.523,134.426 96.674,142.035 96.664 C 148.174 96.656,151.500 93.891,151.500 88.795 L 151.500 87.833 147.917 87.833 L 144.333 87.833 144.333 88.593 C 144.333 91.099,142.863 92.567,141.211 91.710 C 140.124 91.146,139.929 90.593,139.858 87.875 L 139.796 85.500 145.815 85.500 L 151.833 85.500 151.832 83.542 C 151.827 76.334,150.028 72.970,145.569 71.830 C 143.861 71.393,140.297 71.387,138.583 71.818 M206.051 71.913 C 204.900 72.436,203.836 73.530,203.202 74.844 L 202.685 75.917 202.676 73.958 L 202.667 72.000 198.833 72.000 L 195.000 72.000 195.000 84.083 L 195.000 96.167 199.000 96.167 L 203.000 96.167 203.000 89.114 C 203.000 79.260,203.157 78.919,207.708 78.917 L 209.500 78.917 209.500 75.208 L 209.500 71.500 208.208 71.510 C 207.221 71.517,206.713 71.612,206.051 71.913 M219.000 71.752 C 213.785 72.926,211.505 77.797,212.152 86.379 C 212.739 94.163,215.184 96.662,222.217 96.665 C 228.503 96.669,231.833 93.806,231.833 88.402 L 231.833 87.833 228.276 87.833 L 224.719 87.833 224.526 89.196 C 224.191 91.564,222.888 92.591,221.384 91.674 C 220.373 91.058,220.256 90.693,220.193 87.968 L 220.136 85.504 226.110 85.460 L 232.083 85.417 232.136 84.333 C 232.397 78.977,230.923 74.495,228.360 72.850 C 226.481 71.645,221.874 71.104,219.000 71.752 M234.845 73.375 C 236.624 82.109,237.190 84.897,238.184 89.833 C 238.821 92.996,239.383 95.715,239.432 95.875 C 239.515 96.143,239.884 96.167,244.066 96.167 L 248.609 96.167 248.874 94.375 C 249.020 93.390,249.575 89.532,250.108 85.802 C 250.640 82.072,251.101 79.046,251.132 79.076 C 251.194 79.138,251.439 80.789,252.668 89.417 C 253.125 92.625,253.543 95.456,253.596 95.708 L 253.693 96.167 258.263 96.167 C 260.777 96.167,262.833 96.103,262.833 96.025 C 262.833 95.947,263.435 92.928,264.170 89.317 C 264.905 85.705,265.961 80.500,266.515 77.750 C 267.070 75.000,267.564 72.581,267.613 72.375 L 267.703 72.000 263.790 72.000 L 259.876 72.000 259.761 73.208 C 259.697 73.873,259.395 76.554,259.089 79.167 C 258.783 81.779,258.397 85.135,258.230 86.623 C 257.924 89.372,257.796 89.645,257.588 88.000 C 257.524 87.496,257.070 84.121,256.579 80.500 C 256.088 76.879,255.636 73.485,255.574 72.958 L 255.462 72.000 251.155 72.000 L 246.848 72.000 246.756 72.542 C 246.705 72.840,246.474 74.508,246.242 76.250 C 246.010 77.992,245.672 80.504,245.491 81.833 C 245.310 83.162,245.048 85.112,244.908 86.167 C 244.563 88.772,244.466 89.355,244.393 89.282 C 244.359 89.248,243.919 85.627,243.417 81.235 C 242.914 76.843,242.458 72.969,242.403 72.625 L 242.304 72.000 238.434 72.000 L 234.565 72.000 234.845 73.375 M63.783 76.660 C 64.450 77.066,64.833 78.236,64.833 79.864 L 64.833 81.000 62.559 81.000 L 60.284 81.000 60.382 79.612 C 60.583 76.762,61.973 75.556,63.783 76.660 M143.095 76.577 C 143.870 76.901,144.187 77.684,144.295 79.542 L 144.380 81.000 142.083 81.000 L 139.787 81.000 139.870 79.539 C 140.026 76.812,141.161 75.769,143.095 76.577 M223.756 76.839 C 224.295 77.345,224.498 78.128,224.499 79.708 L 224.500 81.000 222.313 81.000 L 220.127 81.000 220.199 79.458 C 220.279 77.739,220.561 76.997,221.294 76.585 C 221.952 76.214,223.231 76.346,223.756 76.839 " stroke="none" fill="#040404" fill-rule="evenodd"></path><path id="path1" d="M6.500 85.583 L 6.500 164.000 138.934 164.000 L 271.369 164.000 271.987 163.511 C 272.327 163.241,272.806 162.929,273.052 162.817 C 273.299 162.705,273.500 162.550,273.500 162.473 C 273.500 162.396,273.579 162.333,273.675 162.333 C 273.771 162.333,274.712 161.771,275.766 161.083 C 276.821 160.396,277.718 159.833,277.760 159.833 C 277.802 159.833,278.210 159.571,278.667 159.250 C 279.123 158.929,279.536 158.667,279.583 158.667 C 279.631 158.667,280.044 158.404,280.500 158.083 C 280.956 157.762,281.369 157.500,281.417 157.500 C 281.464 157.500,281.877 157.238,282.333 156.917 C 282.790 156.596,283.211 156.333,283.270 156.333 C 283.329 156.333,283.742 156.071,284.189 155.750 C 284.635 155.429,285.031 155.167,285.067 155.167 C 285.103 155.167,285.835 154.715,286.692 154.164 C 287.549 153.612,288.494 153.036,288.792 152.883 C 289.090 152.730,289.333 152.544,289.333 152.469 C 289.333 152.394,289.410 152.333,289.504 152.333 C 289.706 152.333,291.059 151.471,291.139 151.292 C 291.169 151.223,291.264 151.167,291.350 151.167 C 291.435 151.167,292.368 150.604,293.422 149.917 C 294.477 149.229,295.376 148.667,295.421 148.667 C 295.466 148.667,295.877 148.404,296.333 148.083 C 296.790 147.763,297.202 147.500,297.250 147.500 C 297.298 147.500,297.710 147.237,298.167 146.917 C 298.623 146.596,299.036 146.333,299.083 146.333 C 299.131 146.333,299.544 146.071,300.000 145.750 C 300.456 145.429,300.869 145.167,300.917 145.167 C 300.964 145.167,301.377 144.904,301.833 144.583 C 302.290 144.263,302.706 144.000,302.757 144.000 C 302.846 144.000,304.143 143.183,306.167 141.853 C 307.278 141.122,307.591 140.931,308.292 140.559 C 308.590 140.401,308.833 140.210,308.833 140.136 C 308.833 140.061,308.902 140.000,308.986 140.000 C 309.070 140.000,310.423 139.175,311.993 138.167 C 313.562 137.158,314.881 136.333,314.925 136.333 C 314.968 136.333,315.377 136.071,315.833 135.750 C 316.290 135.429,316.702 135.167,316.750 135.167 C 316.798 135.167,317.210 134.904,317.667 134.583 C 318.123 134.263,318.536 134.000,318.583 134.000 C 318.631 134.000,319.044 133.738,319.500 133.417 C 319.956 133.096,320.366 132.833,320.410 132.833 C 320.491 132.833,322.175 131.775,323.830 130.685 C 324.332 130.354,324.821 130.046,324.917 130.000 C 325.012 129.954,325.502 129.649,326.004 129.321 C 326.506 128.993,327.442 128.394,328.083 127.988 C 328.725 127.583,329.275 127.195,329.306 127.126 C 329.336 127.057,329.431 127.000,329.515 127.000 C 329.600 127.000,330.309 126.588,331.091 126.083 C 331.872 125.579,332.547 125.167,332.591 125.167 C 332.634 125.167,333.044 124.904,333.500 124.583 C 333.956 124.263,334.369 124.000,334.417 124.000 C 334.464 124.000,334.877 123.738,335.333 123.417 C 335.790 123.096,336.202 122.833,336.250 122.833 C 336.298 122.833,336.692 122.584,337.127 122.280 C 337.561 121.975,338.280 121.507,338.723 121.238 C 339.167 120.970,339.702 120.638,339.913 120.500 C 340.269 120.269,341.829 119.303,342.473 118.917 C 342.625 118.825,343.200 118.458,343.750 118.100 C 344.300 117.743,345.200 117.163,345.750 116.812 C 346.300 116.461,346.828 116.108,346.924 116.029 C 347.020 115.949,347.174 115.854,347.267 115.817 C 347.419 115.757,350.081 114.088,352.617 112.464 C 353.148 112.124,353.958 111.614,354.417 111.332 C 354.875 111.049,355.682 110.540,356.210 110.201 C 356.737 109.861,357.937 109.102,358.876 108.514 C 359.815 107.926,361.108 107.110,361.750 106.700 C 362.392 106.290,363.254 105.742,363.667 105.482 C 364.079 105.222,364.507 104.932,364.618 104.838 C 364.729 104.744,364.859 104.667,364.909 104.667 C 364.983 104.667,366.580 103.666,371.167 100.745 C 373.406 99.318,375.487 98.003,377.204 96.929 C 377.779 96.569,378.775 95.940,379.417 95.531 C 380.058 95.123,380.921 94.575,381.333 94.315 C 381.746 94.055,382.174 93.765,382.285 93.671 C 382.395 93.577,382.525 93.500,382.572 93.500 C 382.676 93.500,389.495 89.170,391.476 87.847 C 392.455 87.193,392.964 86.730,393.190 86.288 L 393.511 85.659 393.067 85.076 C 392.699 84.594,391.322 83.500,391.083 83.500 C 391.015 83.500,390.148 82.943,388.453 81.811 C 387.923 81.456,387.454 81.167,387.410 81.167 C 387.366 81.167,386.956 80.904,386.500 80.583 C 386.044 80.263,385.631 80.000,385.583 80.000 C 385.536 80.000,385.123 79.738,384.667 79.417 C 384.210 79.096,383.803 78.833,383.762 78.833 C 383.721 78.833,382.426 78.035,380.885 77.059 C 377.335 74.810,377.257 74.760,375.206 73.437 C 374.265 72.830,373.461 72.333,373.419 72.333 C 373.377 72.333,373.022 72.119,372.630 71.858 C 370.582 70.493,369.815 70.000,369.743 70.000 C 369.699 70.000,369.290 69.738,368.833 69.417 C 368.377 69.096,367.964 68.833,367.917 68.833 C 367.869 68.833,367.456 68.571,367.000 68.250 C 366.544 67.929,366.136 67.667,366.095 67.667 C 366.054 67.667,364.760 66.868,363.219 65.892 C 359.668 63.643,359.590 63.593,357.539 62.270 C 356.599 61.663,355.792 61.167,355.746 61.167 C 355.700 61.167,355.290 60.904,354.833 60.583 C 354.377 60.263,353.964 60.000,353.917 60.000 C 353.869 60.000,353.456 59.738,353.000 59.417 C 352.544 59.096,352.129 58.833,352.078 58.833 C 352.028 58.833,351.783 58.691,351.535 58.517 C 350.877 58.056,348.639 56.618,348.250 56.406 C 347.937 56.235,345.617 54.778,343.750 53.579 C 343.292 53.285,342.279 52.635,341.500 52.135 C 340.721 51.634,339.746 51.021,339.333 50.772 C 338.169 50.069,337.988 49.954,337.135 49.375 C 336.696 49.077,336.298 48.833,336.250 48.833 C 336.202 48.833,335.790 48.571,335.333 48.250 C 334.877 47.929,334.464 47.667,334.417 47.667 C 334.369 47.667,333.956 47.404,333.500 47.083 C 333.044 46.762,332.631 46.500,332.583 46.500 C 332.536 46.500,332.123 46.237,331.667 45.917 C 331.210 45.596,330.803 45.333,330.763 45.333 C 330.677 45.333,326.836 42.914,326.573 42.693 C 326.475 42.612,326.213 42.450,325.990 42.333 C 325.766 42.216,324.983 41.729,324.250 41.251 C 321.967 39.761,320.493 38.833,320.410 38.833 C 320.366 38.833,319.956 38.571,319.500 38.250 C 319.044 37.929,318.631 37.667,318.583 37.667 C 318.536 37.667,318.123 37.404,317.667 37.083 C 317.210 36.762,316.798 36.500,316.750 36.500 C 316.702 36.500,316.290 36.237,315.833 35.917 C 315.377 35.596,314.971 35.333,314.931 35.333 C 314.847 35.333,309.166 31.745,308.906 31.527 C 308.809 31.445,308.546 31.283,308.323 31.166 C 308.099 31.050,307.317 30.563,306.583 30.084 C 304.300 28.595,302.826 27.667,302.743 27.667 C 302.699 27.667,302.290 27.404,301.833 27.083 C 301.377 26.762,300.964 26.500,300.917 26.500 C 300.869 26.500,300.456 26.237,300.000 25.917 C 299.544 25.596,299.131 25.333,299.083 25.333 C 299.036 25.333,298.623 25.071,298.167 24.750 C 297.710 24.429,297.303 24.167,297.262 24.167 C 297.220 24.167,296.263 23.568,295.135 22.837 C 294.007 22.106,292.671 21.267,292.167 20.973 C 291.662 20.679,291.212 20.388,291.167 20.326 C 291.121 20.264,290.830 20.071,290.520 19.898 C 289.812 19.503,289.628 19.389,288.500 18.648 C 286.766 17.510,285.156 16.500,285.076 16.500 C 285.033 16.500,284.623 16.237,284.167 15.917 C 283.710 15.596,283.298 15.333,283.250 15.333 C 283.202 15.333,282.804 15.090,282.365 14.792 C 281.926 14.494,281.421 14.163,281.242 14.056 C 280.649 13.703,277.593 11.799,277.000 11.414 C 276.353 10.994,275.070 10.183,274.636 9.920 C 274.481 9.827,273.994 9.534,273.553 9.270 C 273.111 9.006,272.362 8.537,271.888 8.228 C 271.415 7.919,270.955 7.667,270.867 7.667 C 270.779 7.667,270.614 7.554,270.500 7.417 C 270.316 7.195,255.434 7.167,138.396 7.167 L 6.500 7.167 6.500 85.583 M271.670 14.226 C 271.989 14.442,273.262 15.255,274.500 16.032 C 276.517 17.298,286.777 23.760,292.667 27.473 C 293.904 28.254,296.904 30.142,299.333 31.669 C 301.762 33.196,308.250 37.282,313.750 40.749 C 319.250 44.217,324.725 47.666,325.917 48.416 C 327.108 49.165,330.146 51.078,332.667 52.667 C 335.188 54.255,338.225 56.169,339.417 56.919 C 340.608 57.669,342.746 59.016,344.167 59.913 C 345.587 60.809,348.363 62.553,350.333 63.788 C 352.304 65.022,354.179 66.205,354.500 66.416 C 355.064 66.787,361.255 70.687,372.833 77.966 C 375.904 79.897,378.492 81.542,378.583 81.621 C 378.675 81.700,379.912 82.467,381.333 83.326 C 382.754 84.184,384.011 84.972,384.127 85.076 C 384.289 85.222,383.683 85.683,381.460 87.104 C 379.262 88.508,345.036 110.674,340.583 113.577 C 339.357 114.376,336.833 116.012,331.500 119.464 C 328.887 121.155,325.962 123.051,325.000 123.678 C 324.037 124.305,321.242 126.115,318.788 127.701 C 316.334 129.286,310.278 133.208,305.330 136.417 C 300.381 139.625,295.693 142.662,294.912 143.167 C 294.131 143.671,288.686 147.196,282.812 151.000 C 276.939 154.804,272.066 157.942,271.983 157.972 C 271.896 158.004,271.833 155.451,271.833 151.881 L 271.833 145.733 294.458 131.081 C 316.084 117.075,320.383 114.290,322.250 113.076 C 323.023 112.573,332.973 106.126,340.208 101.440 C 341.926 100.327,343.972 99.004,344.753 98.500 C 357.347 90.377,364.955 85.396,364.902 85.309 C 364.865 85.250,364.178 84.791,363.376 84.290 C 362.573 83.789,360.792 82.668,359.417 81.800 C 358.042 80.932,353.842 78.284,350.083 75.917 C 346.325 73.550,341.825 70.714,340.083 69.616 C 338.342 68.518,335.342 66.629,333.417 65.420 C 331.492 64.210,325.417 60.384,319.917 56.918 C 314.417 53.452,308.942 50.002,307.750 49.252 C 306.558 48.502,303.521 46.589,301.000 45.000 C 298.479 43.411,295.104 41.287,293.500 40.281 C 290.842 38.612,285.412 35.188,280.500 32.084 C 279.446 31.417,277.121 29.956,275.333 28.836 C 273.546 27.716,271.814 26.626,271.485 26.415 L 270.887 26.031 270.777 23.640 C 270.640 20.632,270.634 14.447,270.768 14.097 C 270.901 13.750,270.984 13.762,271.670 14.226 M184.168 64.129 C 188.389 65.391,190.187 68.040,190.442 73.373 L 190.551 75.667 186.526 75.667 L 182.500 75.667 182.499 74.708 C 182.492 70.247,181.297 68.377,179.114 69.413 C 177.612 70.126,177.417 71.372,177.417 80.250 C 177.417 89.128,177.612 90.374,179.114 91.087 C 181.437 92.189,182.641 89.998,182.662 84.625 L 182.667 83.500 186.667 83.500 L 190.667 83.500 190.666 85.458 C 190.663 93.586,187.307 96.868,179.250 96.621 C 171.021 96.369,168.770 92.892,168.761 80.417 C 168.753 69.109,170.947 64.828,177.255 63.842 C 178.893 63.585,182.907 63.752,184.168 64.129 M23.575 64.875 C 23.625 65.173,23.894 67.479,24.174 70.000 C 24.454 72.521,24.868 76.196,25.095 78.167 C 25.322 80.137,25.587 82.537,25.684 83.500 C 26.052 87.139,26.040 87.171,26.990 80.083 C 27.461 76.575,28.445 69.282,28.756 67.000 C 28.900 65.946,29.052 64.915,29.095 64.708 L 29.173 64.333 32.920 64.333 C 34.981 64.333,36.667 64.368,36.667 64.411 C 36.667 64.519,38.623 77.763,38.908 79.583 C 39.037 80.408,39.313 82.275,39.522 83.732 C 39.948 86.712,40.039 86.696,40.320 83.583 C 40.420 82.483,40.802 78.658,41.169 75.083 C 41.536 71.508,41.923 67.627,42.030 66.458 L 42.224 64.333 46.282 64.333 L 50.340 64.333 50.260 64.708 C 50.093 65.490,49.818 67.055,49.080 71.417 C 48.297 76.043,47.685 79.633,46.835 84.583 C 46.567 86.142,46.044 89.217,45.672 91.417 C 45.300 93.617,44.958 95.585,44.911 95.792 L 44.827 96.167 40.273 96.167 L 35.719 96.167 35.347 93.292 C 35.143 91.710,34.835 89.367,34.661 88.083 C 34.405 86.183,33.834 81.717,33.067 75.614 C 32.937 74.582,32.840 74.701,32.662 76.111 C 32.582 76.737,32.399 78.150,32.254 79.250 C 32.108 80.350,31.840 82.412,31.658 83.833 C 31.475 85.254,31.135 87.879,30.902 89.667 C 30.670 91.454,30.390 93.629,30.281 94.500 L 30.083 96.083 25.480 96.128 L 20.877 96.172 20.789 95.461 C 20.740 95.070,20.465 93.400,20.176 91.750 C 19.643 88.699,19.219 86.227,18.000 79.083 C 17.334 75.182,16.735 71.686,15.908 66.881 C 15.684 65.578,15.500 64.472,15.500 64.423 C 15.500 64.374,17.297 64.333,19.492 64.333 L 23.485 64.333 23.575 64.875 M104.586 65.917 C 105.392 69.227,106.936 75.550,108.249 80.917 C 109.515 86.094,110.161 88.746,111.474 94.167 L 111.938 96.083 107.611 96.128 C 105.231 96.152,103.247 96.136,103.202 96.091 C 103.107 95.996,102.796 94.229,102.502 92.125 L 102.299 90.667 98.994 90.667 C 95.990 90.667,95.681 90.693,95.603 90.958 C 95.510 91.274,94.833 95.693,94.833 95.987 C 94.833 96.111,93.478 96.167,90.478 96.167 L 86.123 96.167 86.218 95.625 C 86.271 95.327,86.733 93.358,87.246 91.250 C 87.758 89.142,88.473 86.179,88.834 84.667 C 90.363 78.260,91.881 71.926,92.409 69.750 C 92.720 68.467,93.137 66.722,93.335 65.873 L 93.696 64.329 98.958 64.373 L 104.221 64.417 104.586 65.917 M98.675 72.121 C 98.562 72.834,98.109 75.554,97.668 78.167 C 97.227 80.779,96.815 83.235,96.752 83.625 L 96.637 84.333 98.960 84.333 L 101.283 84.333 100.151 77.649 C 99.529 73.972,98.988 70.933,98.950 70.895 C 98.912 70.856,98.788 71.408,98.675 72.121 M65.884 71.768 C 70.432 72.785,72.327 76.220,72.332 83.458 L 72.333 85.500 66.315 85.500 L 60.296 85.500 60.358 87.875 C 60.429 90.593,60.624 91.146,61.711 91.710 C 63.379 92.575,64.833 91.143,64.833 88.636 L 64.833 87.833 68.519 87.833 L 72.205 87.833 72.092 88.792 C 71.431 94.419,68.732 96.667,62.633 96.667 C 54.960 96.667,52.333 93.500,52.333 84.250 C 52.333 76.726,54.352 73.008,59.083 71.818 C 60.649 71.424,64.228 71.398,65.884 71.768 M129.166 75.208 L 129.166 78.917 127.287 78.917 C 122.884 78.917,122.667 79.408,122.667 89.342 L 122.667 96.167 118.667 96.167 L 114.667 96.167 114.667 84.083 L 114.667 72.000 118.583 72.000 L 122.500 72.000 122.513 73.958 C 122.524 75.642,122.553 75.847,122.722 75.417 C 123.713 72.898,125.576 71.505,127.958 71.502 L 129.167 71.500 129.166 75.208 M145.569 71.830 C 150.028 72.970,151.827 76.334,151.832 83.542 L 151.833 85.500 145.815 85.500 L 139.796 85.500 139.858 87.875 C 139.929 90.593,140.124 91.146,141.211 91.710 C 142.863 92.567,144.333 91.099,144.333 88.593 L 144.333 87.833 147.917 87.833 L 151.500 87.833 151.500 88.795 C 151.500 93.891,148.174 96.656,142.035 96.664 C 134.426 96.674,131.839 93.523,131.839 84.250 C 131.839 76.616,133.788 73.024,138.583 71.818 C 140.297 71.387,143.861 71.393,145.569 71.830 M209.500 75.208 L 209.500 78.917 207.708 78.917 C 203.157 78.919,203.000 79.260,203.000 89.114 L 203.000 96.167 199.000 96.167 L 195.000 96.167 195.000 84.083 L 195.000 72.000 198.833 72.000 L 202.667 72.000 202.676 73.958 L 202.685 75.917 203.202 74.844 C 204.260 72.653,205.951 71.526,208.208 71.510 L 209.500 71.500 209.500 75.208 M226.465 71.968 C 230.445 73.253,232.462 77.650,232.136 84.333 L 232.083 85.417 226.110 85.460 L 220.136 85.504 220.193 87.968 C 220.256 90.693,220.373 91.058,221.384 91.674 C 222.888 92.591,224.191 91.564,224.526 89.196 L 224.719 87.833 228.276 87.833 L 231.833 87.833 231.833 88.402 C 231.833 93.806,228.503 96.669,222.217 96.665 C 215.184 96.662,212.739 94.163,212.152 86.379 C 211.505 77.797,213.785 72.926,219.000 71.752 C 220.624 71.386,225.059 71.515,226.465 71.968 M242.403 72.625 C 242.458 72.969,242.914 76.843,243.417 81.235 C 243.919 85.627,244.359 89.248,244.393 89.282 C 244.466 89.355,244.563 88.772,244.908 86.167 C 245.048 85.112,245.310 83.162,245.491 81.833 C 245.672 80.504,246.010 77.992,246.242 76.250 C 246.474 74.508,246.705 72.840,246.756 72.542 L 246.848 72.000 251.155 72.000 L 255.462 72.000 255.574 72.958 C 255.636 73.485,256.088 76.879,256.579 80.500 C 257.070 84.121,257.524 87.496,257.588 88.000 C 257.796 89.645,257.924 89.372,258.230 86.623 C 258.397 85.135,258.783 81.779,259.089 79.167 C 259.395 76.554,259.697 73.873,259.761 73.208 L 259.876 72.000 263.790 72.000 L 267.703 72.000 267.613 72.375 C 267.564 72.581,267.070 75.000,266.515 77.750 C 265.961 80.500,264.905 85.705,264.170 89.317 C 263.435 92.928,262.833 95.947,262.833 96.025 C 262.833 96.103,260.777 96.167,258.263 96.167 L 253.693 96.167 253.596 95.708 C 253.543 95.456,253.125 92.625,252.668 89.417 C 251.439 80.789,251.194 79.138,251.132 79.076 C 251.101 79.046,250.640 82.072,250.108 85.802 C 249.575 89.532,249.020 93.390,248.874 94.375 L 248.609 96.167 244.066 96.167 C 239.884 96.167,239.515 96.143,239.432 95.875 C 239.383 95.715,238.821 92.996,238.184 89.833 C 237.190 84.897,236.624 82.109,234.845 73.375 L 234.565 72.000 238.434 72.000 L 242.304 72.000 242.403 72.625 M61.554 76.602 C 60.856 76.946,60.507 77.844,60.382 79.612 L 60.284 81.000 62.559 81.000 L 64.833 81.000 64.833 79.864 C 64.833 76.986,63.488 75.648,61.554 76.602 M141.121 76.529 C 140.394 76.794,139.969 77.818,139.870 79.539 L 139.787 81.000 142.083 81.000 L 144.380 81.000 144.295 79.542 C 144.136 76.814,143.082 75.813,141.121 76.529 M221.294 76.585 C 220.561 76.997,220.279 77.739,220.199 79.458 L 220.127 81.000 222.313 81.000 L 224.500 81.000 224.499 79.708 C 224.497 76.932,223.097 75.568,221.294 76.585 " stroke="none" fill="#04abeb" fill-rule="evenodd"></path></g></svg>